<?xml version="1.0" standalone="no"?><!DOCTYPE svg PUBLIC "-//W3C//DTD SVG 1.1//EN" "http://www.w3.org/Graphics/SVG/1.1/DTD/svg11.dtd"><svg t="1757148933907" class="icon" viewBox="0 0 1024 1024" version="1.1" xmlns="http://www.w3.org/2000/svg" p-id="17193" xmlns:xlink="http://www.w3.org/1999/xlink" width="200" height="200"><path d="M537.6 25.6c268.6464 0 486.4 217.7792 486.4 486.4s-217.7536 486.4-486.4 486.4C268.9792 998.4 51.2 780.6208 51.2 512S268.9792 25.6 537.6 25.6zM618.0096 384.7936c1.408 0 2.6368-0.5888 3.8912-0.7936l46.1056 0-25.2416-31.36C639.9232 341.3504 630.1696 332.8 618.0096 332.8c-1.4592 0-2.6624 0.5888-3.9424 0.7936L460.8 333.5936l-0.1792 0.1024c-9.8304 0.2304-18.176 6.0928-22.1184 14.4896l-0.896 0.6144L410.3936 384l203.648 0C615.3984 384.2048 616.6016 384.7936 618.0096 384.7936zM691.2 385.6128 384 385.6128c-28.2624 0-51.2 22.9376-51.2 51.2l0 201.6c0 28.2624 22.9376 51.2 51.2 51.2l307.2 0c28.2624 0 51.2-22.9376 51.2-51.2l0-201.6C742.4 408.5248 719.4624 385.6128 691.2 385.6128zM538.3936 615.1936C481.3824 615.1936 435.2 569.0112 435.2 512c0-56.9856 46.208-103.1936 103.1936-103.1936 57.0112 0 103.1936 46.208 103.1936 103.1936C641.6128 569.0112 595.4048 615.1936 538.3936 615.1936zM538.0096 460.8c-28.2624 0-51.2 22.9376-51.2 51.2 0 28.2624 22.9376 51.2 51.2 51.2 28.2624 0 51.2-22.9376 51.2-51.2C589.2096 483.7376 566.272 460.8 538.0096 460.8z" fill="#f00057" p-id="17194" data-spm-anchor-id="a313x.search_index.0.i20.d39c3a81Wlo2kX" class="selected"></path></svg>