<svg xmlns="http://www.w3.org/2000/svg" xmlns:xlink="http://www.w3.org/1999/xlink" fill="none" version="1.1" width="250.5599822998047" height="250.5599822998047" viewBox="0 0 250.5599822998047 250.5599822998047"><defs><clipPath id="master_svg0_206_6462"><rect x="0" y="0" width="250.5599822998047" height="250.5599822998047" rx="0"/></clipPath><linearGradient x1="0.8071281313896179" y1="0.6476527452468872" x2="0.2843984811010323" y2="0.5658876327359772" id="master_svg1_206_7647"><stop offset="2.844674326479435%" stop-color="#ED675A" stop-opacity="1"/><stop offset="100%" stop-color="#FFD5D1" stop-opacity="1"/></linearGradient><filter id="master_svg2_206_6531" filterUnits="objectBoundingBox" color-interpolation-filters="sRGB" x="-8.593836348094761" y="-11.422876874187642" width="18.187672696189523" height="23.845753748375284"><feFlood flood-opacity="0" result="BackgroundImageFix"/><feBlend mode="normal" in="SourceGraphic" in2="BackgroundImageFix" result="shape"/><feGaussianBlur stdDeviation="7.199999809265137" result="effect1_foregroundBlur"/></filter><linearGradient x1="0.8071281313896179" y1="0.6476527452468872" x2="0.30901008625760074" y2="0.4446704371319665" id="master_svg3_206_00513"><stop offset="2.844674326479435%" stop-color="#FF9186" stop-opacity="1"/><stop offset="100%" stop-color="#FFD5D1" stop-opacity="1"/></linearGradient><filter id="master_svg4_206_6522" filterUnits="objectBoundingBox" color-interpolation-filters="sRGB" x="-8.553862460329071" y="-11.49425268106719" width="18.107724920658143" height="23.98850536213438"><feFlood flood-opacity="0" result="BackgroundImageFix"/><feBlend mode="normal" in="SourceGraphic" in2="BackgroundImageFix" result="shape"/><feGaussianBlur stdDeviation="7.199999809265137" result="effect1_foregroundBlur"/></filter><linearGradient x1="0.8071281313896179" y1="0.6476527452468872" x2="0.3092293267119662" y2="0.44419624928518897" id="master_svg5_206_00513"><stop offset="2.844674326479435%" stop-color="#FF9186" stop-opacity="1"/><stop offset="100%" stop-color="#FFD5D1" stop-opacity="1"/></linearGradient><filter id="master_svg6_206_6511" filterUnits="objectBoundingBox" color-interpolation-filters="sRGB" x="-8.674927370183763" y="-11.282667663211171" width="18.349854740367526" height="23.565335326422343"><feFlood flood-opacity="0" result="BackgroundImageFix"/><feBlend mode="normal" in="SourceGraphic" in2="BackgroundImageFix" result="shape"/><feGaussianBlur stdDeviation="7.199999809265137" result="effect1_foregroundBlur"/></filter><linearGradient x1="0.8071281313896179" y1="0.6476527452468872" x2="0.3092290905638849" y2="0.44419675874513664" id="master_svg7_206_00513"><stop offset="2.844674326479435%" stop-color="#FF9186" stop-opacity="1"/><stop offset="100%" stop-color="#FFD5D1" stop-opacity="1"/></linearGradient><linearGradient x1="0.8654657006263733" y1="0.5259573459625244" x2="0.20513851291086585" y2="0.4208262496463857" id="master_svg8_206_00575"><stop offset="0%" stop-color="#FFFDFD" stop-opacity="0.4099999964237213"/><stop offset="98.55896234512329%" stop-color="#FFDAD6" stop-opacity="1"/></linearGradient><linearGradient x1="1" y1="1.6821656227111816" x2="0.657058668290558" y2="0.1370177624827351" id="master_svg9_206_9501"><stop offset="1.0683276690542698%" stop-color="#ED675A" stop-opacity="1"/><stop offset="84.67555046081543%" stop-color="#FFECEB" stop-opacity="1"/></linearGradient><linearGradient x1="0.08419472724199295" y1="2.061767101287842" x2="1.2104983710561479" y2="0.7173857542321254" id="master_svga_206_00275"><stop offset="10.701817274093628%" stop-color="#FF695A" stop-opacity="1"/><stop offset="94.41189765930176%" stop-color="#FFE7E5" stop-opacity="1"/></linearGradient><linearGradient x1="1" y1="1.6821656227111816" x2="0.09244362604396394" y2="1.450595938217786" id="master_svgb_206_9619"><stop offset="0%" stop-color="#F9A8A0" stop-opacity="1"/><stop offset="84.67555046081543%" stop-color="#FFECEB" stop-opacity="1"/></linearGradient><linearGradient x1="1" y1="1.6821656227111816" x2="0.7664783258654252" y2="0.13768162782201998" id="master_svgc_206_9501"><stop offset="1.0683276690542698%" stop-color="#ED675A" stop-opacity="1"/><stop offset="84.67555046081543%" stop-color="#FFECEB" stop-opacity="1"/></linearGradient><linearGradient x1="1" y1="1.927178144454956" x2="-0.0012536337071951185" y2="0.47774050588999084" id="master_svgd_206_00281"><stop offset="6.176391616463661%" stop-color="#FF695A" stop-opacity="1"/><stop offset="94.41189765930176%" stop-color="#FFE7E5" stop-opacity="1"/></linearGradient><linearGradient x1="0.17600281536579132" y1="2.123286008834839" x2="0.8784853561538338" y2="0.13363087400832152" id="master_svge_206_9135"><stop offset="6.176391616463661%" stop-color="#ED675A" stop-opacity="1"/><stop offset="94.41189765930176%" stop-color="#FFE7E5" stop-opacity="1"/></linearGradient><linearGradient x1="0.42020922899246216" y1="0.24264837801456451" x2="0.7301011670832741" y2="0.318234857691182" id="master_svgf_206_7199"><stop offset="0%" stop-color="#FFD5D1" stop-opacity="1"/><stop offset="100%" stop-color="#F5AAA3" stop-opacity="1"/></linearGradient></defs><g clip-path="url(#master_svg0_206_6462)"><g><g><g><path d="M182.0320802734375,105.45449829101562L182.7367802734375,105.50147639101563L183.3944802734375,105.62675429101563L184.0208802734375,105.84599829101562L184.61598027343751,106.12787629101562L185.1640802734375,106.47239829101562L185.6651802734375,106.87955829101563L186.1193802734375,107.34935829101562L186.5108802734375,107.86612829101563L186.8396802734375,108.44555829101563L187.0902802734375,109.04062829101562L187.2781802734375,109.68269829101563L187.3721802734375,110.37172829101563L188.4213802734375,110.40305829101563L188.9850802734375,110.51267829101562L189.5018802734375,110.70059829101562L190.00298027343752,110.95115829101563L190.4571802734375,111.26435829101563L190.8642802734375,111.62452829101562L191.2244802734375,112.03169829101563L191.5376802734375,112.48582829101562L191.7882802734375,112.98695829101563L191.9761802734375,113.51939829101562L192.0857802734375,114.06749829101562L192.1327802734375,114.66257829101562L192.0857802734375,115.24199829101562L191.9761802734375,115.80579829101562L191.7882802734375,116.32249829101562L191.5376802734375,116.82369829101563L191.2244802734375,117.27779829101563L190.8642802734375,117.70059829101562L190.4571802734375,118.06079829101563L190.00298027343752,118.35829829101563L189.5018802734375,118.60889829101562L188.9850802734375,118.79679829101562L188.4213802734375,118.90639829101562L187.8262802734375,118.95339829101563L176.0656202734375,118.95339829101563L175.4705402734375,118.90639829101562L174.9224402734375,118.79679829101562L174.3899902734375,118.60889829101562L173.8888802734375,118.35829829101563L173.4347402734375,118.06079829101563L173.0275802734375,117.70059829101562L172.6673922734375,117.27779829101563L172.3541922734375,116.82369829101563L172.1036362734375,116.32249829101562L171.9157242734375,115.80579829101562L171.8060926734375,115.24199829101562L171.7747802734375,114.66257829101562L171.8060926734375,114.06749829101562L171.9157242734375,113.51939829101562L172.1036362734375,112.98695829101563L172.3541922734375,112.48582829101562L172.6673922734375,112.03169829101563L173.0275802734375,111.62452829101562L173.4347402734375,111.26435829101563L173.8888802734375,110.95115829101563L174.3899902734375,110.70059829101562L174.9224402734375,110.51267829101562L175.4705402734375,110.40305829101563L176.6920202734375,110.37172829101563L176.8016402734375,109.68269829101563L176.9738902734375,109.04062829101562L177.2244502734375,108.44555829101563L177.5533202734375,107.86612829101563L177.9448202734375,107.34935829101562L178.3989502734375,106.87955829101563L178.9000802734375,106.47239829101562L179.4481802734375,106.12787629101562L180.0432502734375,105.84599829101562L180.6696502734375,105.62675429101563L181.3273802734375,105.50147639101563L182.0320802734375,105.45449829101562Z" fill-rule="evenodd" fill="url(#master_svg1_206_7647)" fill-opacity="0.3327731192111969" style="mix-blend-mode:passthrough"/></g></g><g></g><g><g><g><g filter="url(#master_svg2_206_6531)"><path d="M81.40071709960938,182.6426129267578L81.47901709960938,182.8148689267578L81.47901709960938,183.17503692675783L81.30675709960937,183.48823492675783L81.15015709960937,183.5978649267578L79.00473809960937,184.80368492675782L78.66021609960937,184.80368492675782L78.34701609960938,184.6314249267578L78.22173809960937,184.4748249267578L78.12777709960938,184.11463492675782L78.22173809960937,183.7701249267578L78.48796009960938,183.5039149267578L80.61771709960938,182.3137373267578L80.78997709960937,182.2824249267578L81.15015709960937,182.37638112675782L81.40071709960938,182.6426129267578Z" fill-rule="evenodd" fill="#476CCE" fill-opacity="0.2436821311712265" style="mix-blend-mode:passthrough"/></g></g><g><path d="M77.20371791015626,179.83949279785156L77.76747791015625,179.87080519785155L78.03369791015625,179.98043679785155L78.25293791015625,180.15269279785156L78.42519791015626,180.38759279785157L78.53481791015625,180.63814879785156L78.58179791015625,180.93569279785157L78.58179791015625,183.97373279785157L78.53481791015625,184.27126279785156L78.42519791015626,184.53749279785157L78.25293791015625,184.75673279785156L78.03369791015625,184.92899279785155L77.76747791015625,185.03860279785155L77.20371791015626,185.08559279785158L76.90617991015625,185.03860279785155L76.63995791015626,184.92899279785155L76.42071891015625,184.75673279785156L76.24845791015625,184.53749279785157L76.13884081015625,184.27126279785156L76.09185791015625,183.97373279785157L76.09185791015625,180.93569279785157L76.13884081015625,180.63814879785156L76.24845791015625,180.38759279785157L76.42071891015625,180.15269279785156L76.63995791015626,179.98043679785155L76.90617991015625,179.87080519785155L77.20371791015626,179.83949279785156Z" fill-rule="evenodd" fill="#E64D3E" fill-opacity="1" style="mix-blend-mode:passthrough"/></g><g><path d="M78.09618697265626,172.4949317080078L81.49441697265625,179.9021157080078L81.57271697265625,180.3249357080078L81.41611697265625,180.71643570800782L81.08724697265625,180.99831570800782L80.74272697265624,181.0766157080078L73.93062997265625,181.0766157080078L73.50780797265625,180.96698570800783L73.21026897265625,180.6694457080078L73.10064697265625,180.2466357080078L73.17894697265625,179.9021157080078L76.57716697265624,172.4949317080078L76.85904697265624,172.1504197080078L77.25054697265625,172.0094757080078L77.68902697265625,172.08777570800783L77.98656697265625,172.3226757080078L78.09618697265626,172.4949317080078Z" fill-rule="evenodd" fill="url(#master_svg3_206_00513)" fill-opacity="1" style="mix-blend-mode:passthrough"/></g></g></g><g><g><g><g filter="url(#master_svg4_206_6522)"><path d="M63.93990166992187,185.60240079394532L64.03386166992188,185.9469327939453L63.93990166992187,186.2914487939453L63.830281669921874,186.4323887939453L61.71618166992187,187.68518879394531L61.543922669921876,187.7634887939453L61.18374466992187,187.7634887939453L60.87054466992188,187.5755787939453L60.760922669921875,187.4346287939453L60.666961669921875,187.07444879394532L60.760922669921875,186.7299287939453L60.87054466992188,186.5889887939453L62.968981669921874,185.33618879394533L63.15690166992187,185.2578887939453L63.501421669921875,185.2735449939453L63.81462166992188,185.44580079394532L63.93990166992187,185.60240079394532Z" fill-rule="evenodd" fill="#476CCE" fill-opacity="0.2436821311712265" style="mix-blend-mode:passthrough"/></g></g><g><path d="M59.25790263671875,181.46812438964844L59.89996263671875,181.48378058964843L60.15052263671875,181.54642438964845L60.36976263671875,181.65603638964845L60.68296263671875,181.89093638964843L60.90220263671875,182.18848038964845L61.01182263671875,182.42338038964843L61.10578263671875,182.94014438964842L61.09012263671875,187.29363438964845L60.90220263671875,187.77909438964844L60.68296263671875,188.07663438964843L60.36976263671875,188.31153438964844L59.89996263671875,188.48379438964844L58.96036263671875,188.48379438964844L58.42792463671875,188.26454438964845L58.02076363671875,187.84173438964845L57.80152453671875,187.30929438964844L57.77020263671875,187.02742438964844L57.80152453671875,182.65828438964843L58.02076363671875,182.12583638964844L58.20868563671875,181.89093638964843L58.69414163671875,181.57773638964844L59.25790263671875,181.46812438964844Z" fill-rule="evenodd" fill="#E64D3E" fill-opacity="1" style="mix-blend-mode:passthrough"/></g><g><path d="M60.44798943359375,171.60235637207032L65.02066943359375,181.5464813720703L65.11466943359375,181.84398137207032L65.11466943359375,182.12588137207032L65.05206943359374,182.4077813720703L64.92676943359375,182.65828137207032L64.73886943359375,182.86188137207031L64.47256943359375,183.03418137207032L64.01846943359375,183.1280813720703L54.87302943359375,183.1280813720703L54.57549143359375,183.09678137207032L54.30926943359375,182.97148137207031L54.09003043359375,182.7992813720703L53.91776943359375,182.5799813720703L53.79249133359375,182.3137813720703L53.76116943359375,182.01628137207032L53.85513043359375,181.5464813720703L58.42784943359375,171.60235637207032L58.58444943359375,171.35178137207032L58.803689433593746,171.1638693720703L59.05424943359375,171.0229251720703L59.33612943359375,170.9602813720703L59.61800943359375,170.9759566720703L59.89988943359375,171.05425667207032L60.13478943359375,171.19518137207032L60.44798943359375,171.60235637207032Z" fill-rule="evenodd" fill="url(#master_svg5_206_00513)" fill-opacity="1" style="mix-blend-mode:passthrough"/></g></g></g><g><g><g><g filter="url(#master_svg6_206_6511)"><path d="M180.136928671875,177.49054383496093L180.199548671875,177.66279983496094L180.199548671875,178.02298683496093L180.027298671875,178.33618583496093L179.870698671875,178.44579583496093L177.740938671875,179.65161583496095L177.568682671875,179.68294583496095L177.224150671875,179.58898583496094L176.957938671875,179.32275583496093L176.879638671875,179.15049583496094L176.879638671875,178.79031583496095L177.067550671875,178.47711583496093L177.208494671875,178.36749583496095L179.353928671875,177.16168733496093L179.526178671875,177.13035583496094L179.870698671875,177.22431203496095L180.136928671875,177.49054383496093Z" fill-rule="evenodd" fill="#476CCE" fill-opacity="0.2436821311712265" style="mix-blend-mode:passthrough"/></g></g><g><path d="M175.454496875,173.3562469482422L176.096556875,173.38755934824218L176.347106875,173.4502031482422L176.566356875,173.55983494824218L176.879556875,173.7947349482422L177.098796875,174.09225894824218L177.208406875,174.3271589482422L177.302366875,174.84394694824218L177.286706875,179.1974369482422L177.098796875,179.6672369482422L176.879556875,179.96475694824218L176.566356875,180.1996569482422L176.096556875,180.3719369482422L175.156956875,180.3719369482422L174.624508875,180.15268694824218L174.217352875,179.74553694824218L173.998109275,179.2130869482422L173.966796875,178.9155469482422L173.998109275,174.54640694824218L174.217352875,174.0139589482422L174.405265875,173.7947349482422L174.890740875,173.4658589482422L175.454496875,173.3562469482422Z" fill-rule="evenodd" fill="#E64D3E" fill-opacity="1" style="mix-blend-mode:passthrough"/></g><g><path d="M176.644573671875,163.50605441308593L181.217263671875,173.45019841308593L181.311263671875,173.73199841308593L181.311263671875,174.01389841308594L181.248663671875,174.29579841308595L181.123363671875,174.54639841308594L180.935463671875,174.76559841308594L180.669163671875,174.92219841308594L180.215063671875,175.03179841308594L171.069623671875,175.03179841308594L170.772075671875,174.98479841308594L170.505863671875,174.87519841308594L170.286619671875,174.70299841308594L170.114363671875,174.46809841308593L169.989076071875,174.21749841308593L169.957763671875,173.90429841308594L170.051719871875,173.45019841308593L174.624433671875,163.50605441308593L174.781033671875,163.23984241308594L175.000273671875,163.05191041308595L175.250833671875,162.92664221308593L175.532723671875,162.86399841308594L175.814583671875,162.86399841308594L176.096473671875,162.95795461308595L176.331373671875,163.09889841308595L176.644573671875,163.50605441308593Z" fill-rule="evenodd" fill="url(#master_svg7_206_00513)" fill-opacity="1" style="mix-blend-mode:passthrough"/></g></g></g><g><g><g><path d="M85.44091796875,173.2935791015625L161.39191796875,216.01407910156252L192.77491796875,185.5240791015625L161.39191796875,173.2935791015625L85.44091796875,173.2935791015625Z" fill-rule="evenodd" fill="url(#master_svg8_206_00575)" fill-opacity="1" style="mix-blend-mode:passthrough"/></g><g><path d="M85.44091796875,130.15020751953125L85.44091796875,173.29350751953126L127.04951796875,185.52400751953127L127.04951796875,142.17710751953126L85.44091796875,130.15020751953125Z" fill-rule="evenodd" fill="url(#master_svg9_206_9501)" fill-opacity="1" style="mix-blend-mode:passthrough"/></g><g><path d="M85.44097734375,130.0250244140625L127.04957734375,142.1772244140625L115.24187734374999,161.6425244140625L74.07177734375,147.8461244140625L85.44097734375,130.0250244140625Z" fill-rule="evenodd" fill="url(#master_svga_206_00275)" fill-opacity="1" style="mix-blend-mode:passthrough"/></g><g><path d="M85.44091796875,130.0250130859375L118.71841796875,118.1234130859375L161.39191796875,130.0250130859375L127.04951796875,142.1772130859375L85.44091796875,130.0250130859375Z" fill-rule="evenodd" fill="url(#master_svgb_206_9619)" fill-opacity="1" style="mix-blend-mode:passthrough"/></g><g><path d="M127.0498046875,142.17710751953126L127.0498046875,185.52400751953127L160.4996046875,173.85730751953125L161.3922046875,130.15020751953125L127.0498046875,142.17710751953126Z" fill-rule="evenodd" fill="url(#master_svgc_206_9501)" fill-opacity="1" style="mix-blend-mode:passthrough"/></g><g><path d="M127.0498046875,142.1772244140625L139.6718046875,161.6425244140625L172.2759046875,148.1280244140625L161.3922046875,130.0250244140625L127.0498046875,142.1772244140625Z" fill-rule="evenodd" fill="url(#master_svgd_206_00281)" fill-opacity="1" style="mix-blend-mode:passthrough"/></g><g><path d="M85.44091796875,130.0250130859375L118.71841796875,118.1234130859375L118.71841796875,140.0004130859375L85.44091796875,130.0250130859375Z" fill-rule="evenodd" fill="url(#master_svge_206_9135)" fill-opacity="1" style="mix-blend-mode:passthrough"/></g><g><path d="M132.3999296875,86.94169974609375L129.5719296875,88.17126474609375L130.1461296875,89.49184974609375L132.9741296875,88.26227974609375L132.3999296875,86.94169974609375ZM120.0150296875,92.82812974609375L118.4712296875,93.71633974609375L119.1893296875,94.96449974609375L120.7101296875,94.08951974609374L123.2747296875,92.73728974609375L124.5910296875,92.08271974609374L123.9498296875,90.79334974609375L122.6182296875,91.45552974609375L120.0150296875,92.82812974609375ZM108.7835296875,101.10828974609375L108.5569196875,101.37848974609375L109.6602496875,102.30388974609374L109.8610396875,102.06438974609375L110.7860096875,101.07878974609375L111.8954096875,100.04538974609375L113.1978196875,98.97278974609375L114.1052696875,98.28758974609374L113.2375196875,97.13842974609375L112.3058396875,97.84198974609374L110.9460596875,98.96178974609376L109.7690896875,100.05808974609374L108.7835296875,101.10828974609375ZM107.2308226875,113.28868974609375L107.4262796875,113.49968974609375L108.4826096875,112.52098974609375L108.3443896875,112.37178974609375L107.9738896875,111.86408974609375L107.6536896875,111.27938974609376L107.3847296875,110.64238974609376L107.1711476875,109.94468974609376L107.03001168750001,109.23898974609375L106.9734826875,108.51828974609376L106.9876226875,107.79698974609374L107.0483856875,107.35428974609376L105.6217616875,107.15838974609375L105.5495496875,107.68458974609375L105.5323766875,108.56058974609375L105.6011356875,109.43718974609375L105.7731986875,110.29748974609375L106.0294146875,111.13448974609375L106.3555316875,111.90688974609375L106.7556796875,112.63758974609375L107.2308226875,113.28868974609375ZM117.5085296875,118.36738974609375L118.8430296875,118.67798974609374L119.1694296875,117.27548974609375L117.8609296875,116.97098974609375L114.5598296875,116.07208974609375L113.2993696875,115.64348974609375L112.8358396875,117.00688974609375L114.1384796875,117.44978974609376L117.5085296875,118.36738974609375ZM129.0695296875,123.03878974609376L129.2053296875,123.31888974609376L130.5011296875,122.69068974609375L130.3223296875,122.32198974609375L129.9577296875,121.77498974609375L129.5313296875,121.27758974609375L129.0361296875,120.80008974609375L128.47422968749999,120.37868974609376L127.7145296875,119.90598974609375L126.8493296875,119.47328974609376L125.9117296875,119.07858974609375L125.2059296875,118.83818974609375L124.7416296875,120.20118974609375L125.3995296875,120.42538974609374L126.2472296875,120.78228974609375L127.0106296875,121.16398974609375L127.6603296875,121.56818974609375L128.1007296875,121.89858974609375L128.4825296875,122.26658974609376L128.8078296875,122.64618974609374L129.0695296875,123.03878974609376ZM126.8797296875,133.14798974609374L126.2192296875,133.96708974609373L127.3401296875,134.87108974609376L128.0333296875,134.01148974609376L128.7409296875,132.99128974609374L129.3331296875,131.93838974609375L129.8398296875,130.87598974609375L130.2703296875,129.78328974609374L130.4183296875,129.24588974609375L129.0299296875,128.86358974609374L128.9023296875,129.32688974609374L128.5185296875,130.30138974609375L128.0542296875,131.27478974609375L127.5190296875,132.22628974609376L126.8797296875,133.14798974609374ZM120.6511296875,138.50498974609374L119.1155296875,139.37368974609376L119.8244296875,140.62698974609376L121.3894296875,139.74178974609376L122.5062296875,139.03908974609374L121.7393296875,137.82028974609375L120.6511296875,138.50498974609374Z" fill-rule="evenodd" fill="#ED9B93" fill-opacity="1" style="mix-blend-mode:passthrough"/></g><g><g><path d="M133.9244384765625,90.74973032226562L144.8864384765625,75.98233032226562L136.9624684765625,80.99353032226563L133.9244384765625,90.74973032226562Z" fill-rule="evenodd" fill="#FFABA3" fill-opacity="1" style="mix-blend-mode:passthrough"/></g><g><path d="M118.1392822265625,77.17239189453124L127.14378222656251,81.49459189453125L155.2847822265625,62.85919189453125L118.1392822265625,77.17239189453124Z" fill-rule="evenodd" fill="url(#master_svgf_206_7199)" fill-opacity="1" style="mix-blend-mode:passthrough"/></g><g><path d="M127.1439208984375,81.49459189453125L133.9247008984375,90.74969189453125L136.96273089843748,80.99349189453125L155.2849208984375,62.85919189453125L127.1439208984375,81.49459189453125Z" fill-rule="evenodd" fill="#FFE2DF" fill-opacity="1" style="mix-blend-mode:passthrough"/></g><g><path d="M136.9625244140625,80.99349189453125L148.3630244140625,82.32459189453125L155.2847244140625,62.85919189453125L136.9625244140625,80.99349189453125Z" fill-rule="evenodd" fill="#FFBDB7" fill-opacity="1"/></g></g></g></g></g></g></svg>