<svg width="24" height="24" viewBox="0 0 48 48" fill="none" xmlns="http://www.w3.org/2000/svg">
  <path d="M32.3 36.2C23.6 36.2 16.6 29.2 16.6 20.5C16.6 15.7 18.7 11.4 22 8.5C21.4 8.4 20.8 8.3 20.2 8.3C12.8 8.3 6.8 14.3 6.8 21.7C6.8 29.1 12.8 35.1 20.2 35.1C25.6 35.1 30.3 31.9 32.3 27.3C32.3 30.7 32.3 33.4 32.3 36.2Z" stroke="currentColor" stroke-width="4" stroke-linejoin="round"/>
  <path d="M30.8 9.8L32.4 13.8L36.4 15.4L32.4 17L30.8 21L29.2 17L25.2 15.4L29.2 13.8L30.8 9.8Z" fill="currentColor"/>
  <path d="M39.6 22.8L40.7 25.5L43.4 26.6L40.7 27.7L39.6 30.4L38.5 27.7L35.8 26.6L38.5 25.5L39.6 22.8Z" fill="currentColor"/>
</svg>
