<svg width="24" height="24" viewBox="0 0 48 48" fill="none" xmlns="http://www.w3.org/2000/svg">
  <path d="M24 5V9" stroke="currentColor" stroke-width="4" stroke-linecap="round"/>
  <path d="M24 39V43" stroke="currentColor" stroke-width="4" stroke-linecap="round"/>
  <path d="M6.4 14.4L9.2 17.2" stroke="currentColor" stroke-width="4" stroke-linecap="round"/>
  <path d="M38.8 30.8L41.6 33.6" stroke="currentColor" stroke-width="4" stroke-linecap="round"/>
  <path d="M5 24H9" stroke="currentColor" stroke-width="4" stroke-linecap="round"/>
  <path d="M39 24H43" stroke="currentColor" stroke-width="4" stroke-linecap="round"/>
  <path d="M6.4 33.6L9.2 30.8" stroke="currentColor" stroke-width="4" stroke-linecap="round"/>
  <path d="M38.8 17.2L41.6 14.4" stroke="currentColor" stroke-width="4" stroke-linecap="round"/>
  <path d="M19 31H29" stroke="currentColor" stroke-width="4" stroke-linecap="round"/>
  <path d="M19 26H29" stroke="currentColor" stroke-width="4" stroke-linecap="round"/>
  <path d="M19 21H29" stroke="currentColor" stroke-width="4" stroke-linecap="round"/>
  <path d="M34 24C34 29.5228 29.5228 34 24 34C18.4772 34 14 29.5228 14 24C14 18.4772 18.4772 14 24 14C26.8706 14 29.4583 15.2098 31.2876 17.1429" stroke="currentColor" stroke-width="4" stroke-linecap="round"/>
</svg>
